<svg xmlns="http://www.w3.org/2000/svg" width="34.601" height="34.685" viewBox="0 0 34.601 34.685"><defs><style>.a{fill:#292929;}</style></defs><path class="a" d="M23.96,48.242H20.018V45.069h1.058a.964.964,0,0,0,.961-.961V40.261a.964.964,0,0,0-.961-.961H4.346a.964.964,0,0,0-.961.961v3.846a.964.964,0,0,0,.961.961H5.4v3.173H1.461a.961.961,0,1,0,0,1.923h1.2V54.3a.961.961,0,1,0,1.923,0V50.165h16.3V54.3a.961.961,0,1,0,1.923,0V50.165h1.2a.964.964,0,0,0,.961-.961A1.007,1.007,0,0,0,23.96,48.242Zm-18.652-5.1V41.223H20.114v1.923Zm12.787,5.1H7.326V45.069H18.143v3.173Z" transform="translate(-0.5 -20.624)"/><path class="a" d="M56.808,16.05l-3.365-4.279L55.8,8.743a.942.942,0,0,0,0-1.2L50.606.811a1,1,0,0,0-1.538,0l-5.192,6.73a.942.942,0,0,0,0,1.2l2.356,3.029L42.866,16.05a.942.942,0,0,0,0,1.2l4.23,5.432a1,1,0,0,0,.769.385h1.01v11.1a.961.961,0,0,0,1.923,0v-11.2h1.01a1,1,0,0,0,.769-.385l4.23-5.432A.937.937,0,0,0,56.808,16.05Zm-5.48,5H50.8V14.223a.961.961,0,0,0-1.923,0V21.1h-.529l-3.461-4.471,3.365-4.278a.942.942,0,0,0,0-1.2L45.895,8.118l3.99-5.144,3.99,5.144-2.4,3.029a.942.942,0,0,0,0,1.2l3.365,4.278Z" transform="translate(-22.387 -0.45)"/></svg>