<svg xmlns="http://www.w3.org/2000/svg" width="34.623" height="34.613" viewBox="0 0 34.623 34.613"><defs><style>.a{fill:#292929;}</style></defs><path class="a" d="M19.013,58.3a3.413,3.413,0,1,0,3.413,3.413A3.426,3.426,0,0,0,19.013,58.3Zm0,4.9a1.49,1.49,0,1,1,1.49-1.49A1.5,1.5,0,0,1,19.013,63.2Z" transform="translate(-8.331 -30.514)"/><path class="a" d="M57.413,58.3a3.413,3.413,0,1,0,3.413,3.413A3.426,3.426,0,0,0,57.413,58.3Zm0,4.9a1.49,1.49,0,1,1,1.49-1.49A1.53,1.53,0,0,1,57.413,63.2Z" transform="translate(-28.271 -30.514)"/><path class="a" d="M34.14,24.836H6.018V4.261a1,1,0,0,0-.385-.769L2.027.7A.99.99,0,0,0,.681.9.94.94,0,0,0,.874,2.242l3.221,2.5V25.8a.964.964,0,0,0,.961.961H34.14a.961.961,0,0,0,0-1.923Z" transform="translate(-0.479 -0.511)"/><path class="a" d="M21.784,22.71H38.225a2.893,2.893,0,0,0,2.884-2.884V7.711a2.893,2.893,0,0,0-2.884-2.884H34.86V1.461A.964.964,0,0,0,33.9.5H26.111a.964.964,0,0,0-.961.961V4.827H21.784A2.893,2.893,0,0,0,18.9,7.711V19.825A2.893,2.893,0,0,0,21.784,22.71ZM27.072,2.423h5.913v2.4H27.072ZM21.784,6.749H38.225a.964.964,0,0,1,.961.961V19.825a.964.964,0,0,1-.961.961H21.784a.964.964,0,0,1-.961-.961V16.172h2.019a.961.961,0,1,0,0-1.923H20.823V12.326h3.942a.961.961,0,0,0,0-1.923H20.823V7.711A.964.964,0,0,1,21.784,6.749Z" transform="translate(-10.045 -0.5)"/></svg>