<svg xmlns="http://www.w3.org/2000/svg" width="33.362" height="34.613" viewBox="0 0 33.362 34.613"><defs><style>.a{fill:#292929;}</style></defs><path class="a" d="M31.818,24.925A.986.986,0,0,0,30.9,24.3H6.1a.94.94,0,0,0-.913.625c-.961,2.452-5.576,15-2.019,18.556,2.932,2.932,9.855,3.99,15.383,3.99S31,46.414,33.933,43.481C37.395,39.924,32.78,27.377,31.818,24.925ZM15.81,26.271h5.336v10L18.454,39.2,15.762,36.27v-10ZM32.443,42.087c-2.019,2.067-7.5,3.365-13.941,3.365S6.628,44.106,4.561,42.087C2.686,40.212,4.7,31.944,6.82,26.319h7.019V36.655a1.149,1.149,0,0,0,.24.673l3.654,4.038a1.016,1.016,0,0,0,1.49,0l3.654-4.038a.9.9,0,0,0,.24-.673V26.271h7.019C32.3,31.944,34.318,40.212,32.443,42.087Z" transform="translate(-1.84 -12.859)"/><path class="a" d="M35.41,35.088a.986.986,0,0,0,1.01-1.01V33.31a1.01,1.01,0,1,0-2.019,0v.769A.986.986,0,0,0,35.41,35.088Z" transform="translate(-18.747 -17.013)"/><path class="a" d="M36.419,44.579V43.81a1.01,1.01,0,1,0-2.019,0v.769a1.01,1.01,0,0,0,2.019,0Z" transform="translate(-18.747 -22.465)"/><path class="a" d="M5.61,9.922H34.021a1.01,1.01,0,0,0,0-2.019H23.4L20.9,5.4l.721-.721a1.635,1.635,0,0,0,.481.048,2.134,2.134,0,0,0,2.115-2.115,2.115,2.115,0,0,0-4.23,0,1.929,1.929,0,0,0,.144.721l-.625.625-.577-.577a2.177,2.177,0,0,0,.144-.769,2.115,2.115,0,1,0-4.23,0A2.134,2.134,0,0,0,16.955,4.73a1.331,1.331,0,0,0,.433-.048l.673.673-2.5,2.5H5.61A.986.986,0,0,0,4.6,8.865,1.094,1.094,0,0,0,5.61,9.922ZM19.455,6.846,20.512,7.9H18.349Z" transform="translate(-3.273 -0.5)"/></svg>